<svg width="342" height="329" viewBox="0 0 342 329" fill="none" xmlns="http://www.w3.org/2000/svg">
<path d="M157.942 240.624L157.372 196.318C157.167 180.381 169.92 167.295 185.857 167.09C201.794 166.885 214.879 179.639 215.084 195.576L215.184 203.301C215.443 223.504 199.276 240.093 179.072 240.353L157.942 240.624Z" fill="#F778BA" stroke="#6D4AFC"/>
<path d="M150.437 231.674L150.305 275.984C150.257 291.922 137.298 304.804 121.36 304.756C105.422 304.709 92.54 291.75 92.5876 275.812L92.6106 268.086C92.6708 247.881 109.099 231.55 129.304 231.611L150.437 231.674Z" fill="#EAE4FF" stroke="#6D4AFC"/>
<circle cx="41.8766" cy="71.8766" r="12.8766" fill="#F778BA"/>
<mask id="mask0_231_2099" style="mask-type:alpha" maskUnits="userSpaceOnUse" x="29" y="25" width="285" height="280">
<path d="M221 167C221 141.595 241.595 121 267 121V121C292.405 121 313 141.595 313 167V305H221V167Z" fill="#C4C4C4"/>
<path d="M221 26V26C271.81 26 313 67.1898 313 118V118H221V26Z" fill="#C4C4C4"/>
<rect x="29.0001" y="90" width="60" height="215" rx="29.5" fill="#C4C4C4"/>
<rect x="93.0001" y="26" width="59" height="138" rx="29.5" fill="#C4C4C4"/>
<path d="M157 90H216V134.5C216 150.792 202.792 164 186.5 164V164C170.208 164 157 150.792 157 134.5V90Z" fill="#C4C4C4"/>
<circle cx="187" cy="55" r="30" fill="#840B37"/>
<circle cx="122.5" cy="197.5" r="30.5" fill="#C4C4C4"/>
</mask>
<g mask="url(#mask0_231_2099)">
<path d="M-6.38551 61.5232H166.367C167.258 61.5232 167.981 62.2461 167.981 63.1377V263.067C167.981 263.959 167.258 264.682 166.367 264.682H-6.38551C-7.27718 264.682 -8.00002 263.959 -8.00002 263.067V63.1377C-8.00002 62.2461 -7.27718 61.5232 -6.38551 61.5232Z" fill="#EAE4FF"/>
<path d="M133.302 83.05V84.6645H153.718C153.869 84.6645 153.989 84.7845 153.989 84.9333H155.603C155.603 83.8924 154.76 83.05 153.718 83.05H133.302ZM108.008 83.05V84.6645H130.073V83.05H108.008ZM82.7141 83.05V84.6645H104.779V83.05H82.7141ZM57.4202 83.05V84.6645H79.4851V83.05H57.4202ZM32.1263 83.05V84.6645H54.1912V83.05H32.1263ZM6.83234 83.05V84.6645H28.8973V83.05H6.83234ZM4.10878 107.74H5.72329V85.6754H4.10878V107.74ZM12.352 126.911V125.296H5.99432C5.84341 125.296 5.72329 125.176 5.72329 125.027V110.969H4.10878V125.027C4.10878 126.068 4.95214 126.911 5.99432 126.911H12.352ZM37.6459 126.911V125.296H15.581V126.911H37.6459ZM62.9398 126.911V125.296H40.8749V126.911H62.9398ZM88.2337 126.911V125.296H66.1688V126.911H88.2337ZM113.528 126.911V125.296H91.4627V126.911H113.528ZM138.822 126.911V125.296H116.757V126.911H138.822ZM155.603 116.278H153.989V125.027C153.989 125.176 153.868 125.296 153.718 125.296H142.051V126.911H153.718C154.759 126.911 155.603 126.068 155.603 125.027V116.278ZM155.603 90.9845H153.989V113.049H155.603V90.9845ZM155.603 84.9333H153.989V87.7555H155.603V84.9333Z" fill="#D8DEED"/>
<path d="M167.981 64.4844C167.981 61.5115 165.573 59.1015 162.6 59.1015H-2.61911C-5.59093 59.1015 -8.00008 61.5117 -8.00008 64.4844V70.9412H167.981V64.4844Z" fill="#D8DEED"/>
<path d="M160.043 67.7122C158.631 67.7122 157.487 66.5677 157.487 65.1559C157.487 63.7441 158.631 62.5996 160.043 62.5996C161.455 62.5996 162.599 63.7441 162.599 65.1559C162.599 66.5677 161.455 67.7122 160.043 67.7122Z" fill="#FF5645"/>
<path d="M151.702 67.7122C150.29 67.7122 149.145 66.5677 149.145 65.1559C149.145 63.7441 150.29 62.5996 151.702 62.5996C153.113 62.5996 154.258 63.7441 154.258 65.1559C154.258 66.5677 153.113 67.7122 151.702 67.7122Z" fill="#F778BA"/>
<path d="M143.091 67.7122C141.679 67.7122 140.534 66.5677 140.534 65.1559C140.534 63.7441 141.679 62.5996 143.091 62.5996C144.503 62.5996 145.647 63.7441 145.647 65.1559C145.647 66.5677 144.503 67.7122 143.091 67.7122Z" fill="#3ABF7C"/>
<path d="M155.579 138.48C155.579 137.886 155.099 137.405 154.502 137.405H6.23764C5.64285 137.405 5.16068 137.885 5.16068 138.48V184.032C5.16068 184.625 5.6401 185.106 6.23764 185.106H154.502C155.097 185.106 155.579 184.626 155.579 184.032V138.48ZM155.065 193.644H97.7501C97.4529 193.644 97.2119 193.885 97.2119 194.182V200.64C97.2119 200.937 97.4529 201.178 97.7501 201.178H155.065C155.362 201.178 155.603 200.937 155.603 200.64V194.182C155.603 193.885 155.362 193.644 155.065 193.644ZM155.065 206.021H114.433C114.136 206.021 113.895 206.262 113.895 206.56V213.018C113.895 213.315 114.136 213.556 114.433 213.556H155.065C155.362 213.556 155.603 213.315 155.603 213.018V206.56C155.603 206.262 155.362 206.021 155.065 206.021ZM155.065 218.668H106.092C105.794 218.668 105.554 218.909 105.554 219.207V225.665C105.554 225.962 105.794 226.203 106.092 226.203H155.065C155.362 226.203 155.603 225.962 155.603 225.665V219.207C155.603 218.909 155.362 218.668 155.065 218.668ZM155.065 231.046H122.775C122.478 231.046 122.237 231.287 122.237 231.584V238.043C122.237 238.34 122.478 238.581 122.775 238.581H155.065C155.362 238.581 155.603 238.34 155.603 238.043V231.584C155.603 231.287 155.362 231.046 155.065 231.046ZM79.9905 206.021H20.792C20.4948 206.021 20.2539 206.262 20.2539 206.56V213.018C20.2539 213.315 20.4948 213.556 20.792 213.556H79.9905C80.2878 213.556 80.5287 213.315 80.5287 213.018V206.56C80.5287 206.262 80.2878 206.021 79.9905 206.021ZM79.9905 218.668H13.2577C12.9604 218.668 12.7195 218.909 12.7195 219.207V225.665C12.7195 225.962 12.9604 226.203 13.2577 226.203H79.9905C80.2878 226.203 80.5287 225.962 80.5287 225.665V219.207C80.5287 218.909 80.2878 218.668 79.9905 218.668ZM79.9905 231.046H5.7233C5.42608 231.046 5.18513 231.287 5.18513 231.584V238.043C5.18513 238.34 5.42608 238.581 5.7233 238.581H79.9905C80.2878 238.581 80.5287 238.34 80.5287 238.043V231.584C80.5287 231.287 80.2878 231.046 79.9905 231.046ZM79.9905 243.424H28.3264C28.0292 243.424 27.7882 243.665 27.7882 243.962V250.42C27.7882 250.718 28.0292 250.959 28.3264 250.959H79.9905C80.2878 250.959 80.5287 250.718 80.5287 250.42V243.962C80.5287 243.665 80.2878 243.424 79.9905 243.424ZM79.9661 193.693H5.69885C5.40163 193.693 5.16068 193.933 5.16068 194.231V200.787C5.16068 201.084 5.40163 201.325 5.69885 201.325H79.9661C80.2633 201.325 80.5043 201.084 80.5043 200.787V194.231C80.5043 193.933 80.2633 193.693 79.9661 193.693Z" fill="#F778BA"/>
<path fill-rule="evenodd" clip-rule="evenodd" d="M78.6252 170.747L79.7405 170.76L79.7322 170.747H93.3766C93.6752 170.747 93.7898 170.542 93.6329 170.29L83.9681 154.773C83.8111 154.52 83.5498 154.519 83.387 154.765L76.4194 165.417L73.7404 161.107C73.5834 160.854 73.3208 160.846 73.152 161.091L66.9871 170.045C66.8191 170.289 66.9216 170.494 67.2212 170.503L72.9013 170.679L73.144 170.682L73.1051 170.747C73.1051 170.747 73.3461 170.747 73.6458 170.747H78.6252ZM73.236 157.158C74.4649 157.158 75.4611 156.153 75.4611 154.914C75.4611 153.674 74.4649 152.669 73.236 152.669C72.0072 152.669 71.011 153.674 71.011 154.914C71.011 156.153 72.0072 157.158 73.236 157.158Z" fill="#6D4AFC"/>
<path d="M305.887 294.012H278.44C277.771 294.012 277.229 294.554 277.229 295.223C277.229 295.892 277.771 296.434 278.44 296.434H305.887C306.555 296.434 307.098 295.892 307.098 295.223C307.098 294.554 306.555 294.012 305.887 294.012ZM220.856 294.012H175.112C174.443 294.012 173.901 294.554 173.901 295.223C173.901 295.892 174.443 296.434 175.112 296.434H220.856C221.525 296.434 222.067 295.892 222.067 295.223C222.067 294.554 221.525 294.012 220.856 294.012Z" fill="#F778BA"/>
<path d="M174.974 294.02C175.019 294.015 175.065 294.012 175.112 294.012H220.856C220.935 294.012 221.012 294.02 221.086 294.034L218.925 276.793H198.69L193.873 280.345C192.77 281.448 191.559 282.444 190.267 283.332C187.119 285.431 185.478 285.404 180.688 287.718C179.396 288.337 178.159 289.01 176.921 289.79C176.329 290.328 175.279 291.405 174.957 292.696C174.903 292.911 174.903 293.127 174.876 293.315C174.876 293.566 174.913 293.802 174.974 294.02ZM278.095 294.062C278.204 294.03 278.32 294.012 278.44 294.012H305.887C305.958 294.012 306.028 294.018 306.096 294.03L299.596 277.345L280.33 279.956L278.095 294.062Z" fill="#474961"/>
<path d="M286.886 205.547C287.001 205.522 287.117 205.497 287.233 205.471C281.017 169.221 276.278 147.498 273.016 140.3C269.754 133.103 265.91 128.006 261.484 125.01C257.26 120.197 249.809 120.465 239.503 120.163C239.242 120.151 238.944 120.154 238.682 120.141C228.027 119.962 229.799 120.369 226.986 121.239C213.486 124.845 202.287 147.617 193.389 189.556L190.561 203.292C190.601 203.18 190.643 203.069 190.686 202.96C190.609 203.315 190.571 203.675 190.573 204.04C190.289 209.909 194.844 214.509 204.238 217.84C209.978 219.874 221.211 225.474 239.68 227.241C247.52 227.991 262.152 227.828 283.575 226.753C287.115 220.806 288.63 216.045 288.12 212.471C287.84 210.513 287.429 208.204 286.886 205.547H286.886Z" fill="#2F2E41"/>
<path opacity="0.176986" d="M286.9 205.617C255.428 212.444 232.173 211.917 217.135 204.035C202.391 196.308 193.58 195.925 190.703 202.885C190.614 203.264 190.571 203.649 190.573 204.04C190.289 209.909 194.844 214.509 204.238 217.84C209.978 219.874 221.211 225.474 239.68 227.241C247.52 227.991 262.152 227.828 283.575 226.753C287.115 220.806 288.63 216.045 288.12 212.471C287.842 210.53 287.436 208.245 286.9 205.617Z" fill="#444444"/>
<path d="M258.25 99.2947C261.263 98.8308 263.68 98.3363 265.501 97.811C266.993 97.6013 269.274 97.009 270.168 95.2529C271.471 92.7329 269.086 89.2911 266.423 85.4264C263.218 80.7955 261.254 79.1252 258.165 76.9405C252.907 73.2214 249.659 73.0771 247.304 75.47C247.067 75.7108 246.831 76.1093 246.596 76.6653C245.924 76.5675 245.237 76.5217 244.538 76.5318L238.618 76.6395C231.111 76.7202 225.137 83.1513 225.245 90.9278V91.4122L225.406 106.4L225.551 113.419C225.651 118.25 229.597 122.115 234.429 122.115H249.525C249.558 122.115 249.59 122.115 249.623 122.114C254.527 122.06 258.458 118.04 258.404 113.136L258.25 99.2947Z" fill="#F778BA"/>
<path d="M135.446 106.431L338.595 95.7841C340.079 95.7063 341.345 96.8464 341.423 98.3304L344.859 163.897C344.937 165.381 343.797 166.647 342.313 166.725L139.164 177.372C137.68 177.449 136.414 176.309 136.336 174.825L132.9 109.259C132.822 107.775 133.962 106.508 135.446 106.431Z" fill="#6D4AFC"/>
<path d="M203.695 123.332L330.529 116.685C331.123 116.654 331.629 117.11 331.66 117.704L332.336 130.602C332.367 131.196 331.911 131.702 331.318 131.733L204.484 138.38C203.89 138.412 203.384 137.956 203.353 137.362L202.677 124.464C202.646 123.87 203.102 123.363 203.695 123.332Z" fill="#6D4AFC"/>
<path d="M236.482 72.9173L236.833 77.3871C236.851 77.607 237 77.7942 237.211 77.8592C238.387 78.2219 239.53 78.3536 240.64 78.2544C241.782 78.1524 243.462 77.7429 245.68 77.0258C245.942 76.9408 246.098 76.6707 246.04 76.4006L244.257 68.1071L244.152 68.1368C245.131 66.16 245.751 65.0541 246.012 64.819C247.005 63.8681 247.789 57.9984 243.364 58.3522C242.877 58.3551 242.402 58.4946 241.946 58.7173L241.916 58.7412C241.768 58.8609 241.578 58.868 241.388 58.8751C240.933 58.8273 240.592 58.4668 240.613 58.009L241.106 50.9991C241.154 50.5441 240.84 50.1864 240.385 50.1386C239.395 50.0346 238.437 49.8798 237.47 49.5616C237.336 49.5476 237.232 49.5095 237.125 49.4983C236.172 49.29 231.041 48.426 227.856 51.9603C227.576 52.3097 227.295 52.659 227.069 53.014C226.486 53.9267 226.159 54.9747 226.121 56.1071L225.904 61.0085C225.907 61.4958 225.91 61.9832 225.963 62.5029C226.615 68.6591 228.906 73.1207 231.193 73.4964C232.368 73.6469 233.559 73.6369 234.747 73.4099C234.897 73.3534 234.8 73.4 236.482 72.9173ZM259.892 209.855L280.33 279.955L299.596 277.345L287.233 205.471L287.172 205.475C287.176 205.502 287.181 205.528 287.185 205.555C277.275 207.715 268.178 209.149 259.892 209.855ZM223.928 206.911C221.503 206.096 219.239 205.138 217.135 204.035C202.652 196.445 193.894 195.941 190.861 202.521C189.127 208.049 188.631 213.094 189.373 217.655C191.601 231.348 194.707 251.06 198.69 276.793H218.925L218.575 219.022L223.928 206.911ZM269.153 96.3792C268.067 97.2693 266.531 97.6338 265.427 97.789C262.079 98.755 256.715 99.6171 249.336 100.375L253.162 115.352L228.924 124.018C228.806 124.043 228.24 124.269 227.227 124.696C216.718 127.69 209.717 130.403 206.225 132.836C203.517 134.722 204.067 137.191 207.875 140.243C210.905 142.671 214.97 143.374 218.64 142.103L234.305 136.678C234.304 136.659 234.303 136.64 234.302 136.621C253.936 134.481 265.755 130.26 269.76 123.96C273.455 118.147 273.253 108.953 269.153 96.3792ZM208.527 102.638C202.049 95.9746 196.12 94.9028 190.741 99.4224C185.361 103.942 191.29 105.014 208.527 102.638Z" fill="#FFCDCD"/>
<path d="M251.719 61.9271C252.535 62.2501 253.342 62.3744 254.139 62.2999C259.416 61.8069 262.993 57.1707 264.406 52.6387C265.819 48.1067 263.337 45.7817 259.366 43.2459C255.395 40.7102 250.849 42.5181 247.06 44.4782C244.845 45.6238 243.545 47.611 243.161 50.4397C242.562 50.3854 241.9 50.3169 241.161 50.2202C240.305 50.1302 239.35 49.8976 237.761 49.5683C237.627 49.5542 236.874 49.3683 236.767 49.357C235.815 49.1487 231.012 48.45 227.826 51.9843C227.844 52.0674 228.668 51.9843 231.079 53.5848C233.824 55.4078 236.529 63.397 238.95 63.2727C238.977 63.2721 239.032 63.2989 239.114 63.353L239.007 63.2515L240.489 60.2147C240.825 59.6005 241.333 59.1399 241.913 58.768C242.369 58.5454 242.844 58.4059 243.331 58.403C244.627 58.4309 245.915 59.5673 246.312 60.9349C246.683 62.2996 246.287 63.7462 245.244 64.6646C244.585 65.2718 243.734 65.6423 242.834 65.7101L241.74 65.5742C241.784 65.6137 241.829 65.6538 241.874 65.6943C243.74 68.6371 244.672 70.1084 244.672 70.1084C244.672 70.1084 245.48 69.8909 247.096 69.4559C249.082 68.7685 250.623 66.2589 251.719 61.9271ZM229.826 59.9868C230.347 60.1768 231.189 60.4006 231.958 60.2921C233.244 60.1567 232.146 59.2836 231.001 59.1091C230.468 59.0261 230.017 59.1952 229.727 59.3812C229.52 59.5488 229.564 59.9051 229.826 59.9868ZM225.288 59.4016C225.803 59.6452 226.611 59.9464 227.398 59.921C228.729 59.8715 227.695 58.897 226.585 58.645C226.005 58.5029 225.584 58.648 225.27 58.8044C225.012 58.9396 225.029 59.2932 225.288 59.4016Z" fill="#482D1F"/>
<path d="M231.327 63.4724C231.628 63.1794 231.6 62.4189 231.567 61.9555C231.577 61.6048 231.278 61.357 230.984 61.326C230.794 61.3331 230.542 61.4148 230.449 61.7838C230.169 62.6473 230.923 63.9711 231.327 63.4724ZM226.914 62.9816C227.162 62.683 227.187 61.928 227.155 61.4646C227.164 61.1139 226.866 60.8661 226.571 60.8352C226.381 60.8422 226.129 60.924 226.036 61.293C225.756 62.1564 226.537 63.4831 226.914 62.9816Z" fill="#482D1F"/>
<path d="M227.397 60.9853C227.392 60.8368 227.509 60.7128 227.658 60.7083C227.806 60.7038 227.93 60.8206 227.935 60.9692L227.983 62.5706L227.982 62.6043L227.71 65.4431C227.717 65.4759 227.74 65.4995 227.774 65.5066C228.098 65.5048 228.513 65.5049 229.02 65.5068C229.169 65.5073 229.289 65.6282 229.288 65.7768C229.288 65.9255 229.167 66.0455 229.018 66.0449C228.502 66.043 228.082 66.043 227.758 66.0449L227.728 66.0435C227.416 66.0106 227.189 65.7621 227.171 65.4612L227.172 65.4193L227.444 62.5699L227.397 60.9853Z" fill="#482D1F"/>
<path d="M229.011 68.2616C229.201 68.2545 229.694 68.1981 229.832 67.9149C229.837 67.8614 229.899 67.7868 229.878 67.7304C229.812 67.5882 228.982 67.501 228.982 67.501C227.882 67.4124 227.62 67.3308 227.526 67.4562C227.491 67.5336 227.479 67.6407 227.642 67.9012C227.835 68.3815 228.711 68.2841 229.011 68.2616Z" fill="#482D1F"/>
<path d="M186.705 124.223L149.745 126.16C147.948 126.254 147.306 126.475 146.668 126.861C146.03 127.247 145.541 127.789 145.224 128.464C144.907 129.14 144.754 129.801 144.849 131.598L145.096 136.311C145.19 138.108 145.411 138.75 145.797 139.388C146.182 140.027 146.725 140.515 147.4 140.832C148.076 141.149 148.737 141.302 150.534 141.208L187.493 139.271C189.29 139.177 189.932 138.955 190.57 138.57C191.209 138.184 191.697 137.641 192.014 136.966C192.331 136.291 192.484 135.63 192.39 133.833L192.143 129.119C192.048 127.322 191.827 126.681 191.441 126.042C191.056 125.404 190.513 124.915 189.838 124.598C189.163 124.282 188.501 124.129 186.705 124.223Z" fill="#F778BA"/>
<path d="M225.927 150.133L303.586 146.064C303.883 146.048 304.136 146.276 304.152 146.573L304.546 154.097C304.562 154.394 304.334 154.647 304.037 154.662L226.378 158.732C226.081 158.748 225.828 158.52 225.812 158.223L225.418 150.699C225.402 150.402 225.63 150.149 225.927 150.133Z" fill="#EAE4FF"/>
<path d="M175.653 152.96L219.723 150.651C220.02 150.635 220.273 150.863 220.288 151.16L220.683 158.684C220.698 158.981 220.47 159.234 220.173 159.25L176.104 161.559C175.807 161.575 175.554 161.347 175.538 161.05L175.144 153.526C175.129 153.229 175.357 152.976 175.653 152.96Z" fill="#EAE4FF"/>
<path d="M210.156 141.08C209.949 141.164 209.714 141.064 209.63 140.857C209.547 140.65 209.647 140.415 209.854 140.332C211.152 139.808 212.174 139.433 214.459 138.623C216.734 137.817 217.748 137.445 219.032 136.927C219.239 136.843 219.474 136.943 219.558 137.15C219.641 137.357 219.541 137.592 219.334 137.675C218.036 138.199 217.014 138.574 214.729 139.384C212.454 140.19 211.44 140.562 210.156 141.08ZM206.137 138.194C205.925 138.264 205.696 138.15 205.626 137.939C205.556 137.727 205.67 137.498 205.881 137.428C207.33 136.945 208.445 136.546 210.92 135.637C213.403 134.725 214.523 134.324 215.982 133.838C216.193 133.767 216.422 133.882 216.492 134.093C216.563 134.305 216.448 134.533 216.237 134.604C214.788 135.086 213.673 135.486 211.198 136.395C208.715 137.307 207.596 137.708 206.137 138.194Z" fill="#482D1F"/>
<path d="M245.637 99.6071C243.607 94.0711 242.428 90.1011 242.098 87.6789C242.068 87.458 242.223 87.2545 242.444 87.2245C242.665 87.1944 242.868 87.3491 242.898 87.57C243.218 89.9187 244.384 93.8446 246.394 99.3293C246.471 99.5386 246.364 99.7704 246.154 99.8471C245.945 99.9239 245.713 99.8164 245.637 99.6071Z" fill="#482D1F"/>
<path d="M312.5 167V296.5H221.5V167C221.5 141.871 241.871 121.5 267 121.5C292.129 121.5 312.5 141.871 312.5 167Z" stroke="#6D4AFC"/>
<path d="M221.5 117.5V26.5013C271.637 26.7696 312.23 67.3626 312.499 117.5H221.5Z" stroke="#6D4AFC"/>
<path d="M157.5 90.5H215.5V134.5C215.5 150.516 202.516 163.5 186.5 163.5C170.484 163.5 157.5 150.516 157.5 134.5V90.5Z" stroke="#6D4AFC"/>
<path d="M151.5 57.5V134.5C151.5 150.516 138.516 163.5 122.5 163.5C106.484 163.5 93.5 150.516 93.5 134.5V57.5C93.5 41.4837 106.484 28.5 122.5 28.5C138.516 28.5 151.5 41.4837 151.5 57.5Z" stroke="#6D4AFC"/>
<rect x="29.5" y="90.5" width="59" height="214" rx="29" stroke="#6D4AFC"/>
</g>
<circle cx="122.5" cy="197.5" r="30" stroke="#6D4AFC"/>
<circle cx="41.5" cy="71.5" r="13" stroke="#6D4AFC"/>
<circle cx="186.5" cy="54.5" r="30" stroke="#6D4AFC"/>
</svg>
